<svg xmlns="http://www.w3.org/2000/svg" xmlns:svg="http://www.w3.org/2000/svg" xmlns:xlink="http://www.w3.org/1999/xlink" id="svg2226" width="127.999" height="127.999" version="1.0"><metadata id="metadata2231"/><defs id="defs2229"><linearGradient id="linearGradient3266"><stop id="stop3268" offset="0" stop-color="#7aa1ca" stop-opacity="1"/><stop id="stop3270" offset="1" stop-color="#3c75b2" stop-opacity="1"/></linearGradient><linearGradient id="linearGradient3258"><stop id="stop3260" offset="0" stop-color="#9096b1" stop-opacity="1"/><stop id="stop3262" offset="1" stop-color="#5e678d" stop-opacity="1"/></linearGradient><linearGradient id="linearGradient3278"><stop id="stop3280" offset="0" stop-color="#7aa1ca" stop-opacity="1"/><stop id="stop3282" offset="1" stop-color="#3c75b2" stop-opacity="1"/></linearGradient><linearGradient id="linearGradient3284" x1="63.667" x2="77.5" y1="18.938" y2="18.938" gradientUnits="userSpaceOnUse" xlink:href="#linearGradient3278"/><linearGradient id="linearGradient2199" x1="63.667" x2="77.5" y1="18.938" y2="18.938" gradientUnits="userSpaceOnUse" xlink:href="#linearGradient3278"/><linearGradient id="linearGradient2210" x1="63.667" x2="77.5" y1="18.938" y2="18.938" gradientUnits="userSpaceOnUse" xlink:href="#linearGradient3278"/><linearGradient id="linearGradient3219" x1="63.667" x2="77.5" y1="18.938" y2="18.938" gradientUnits="userSpaceOnUse" xlink:href="#linearGradient3278"/><linearGradient id="linearGradient2219" x1="63.667" x2="77.5" y1="18.938" y2="18.938" gradientUnits="userSpaceOnUse" xlink:href="#linearGradient3278"/><linearGradient id="linearGradient2262" x1="63.667" x2="77.5" y1="18.938" y2="18.938" gradientUnits="userSpaceOnUse" xlink:href="#linearGradient3278"/><linearGradient id="linearGradient2443" x1="441.503" x2="553.64" y1="596.546" y2="786.834" gradientTransform="matrix(0.1730824,0,0,0.1718448,373.11251,357.18549)" gradientUnits="userSpaceOnUse" xlink:href="#linearGradient5809"/><linearGradient id="linearGradient2234" x1="331.574" x2="225.658" y1="354.458" y2="133.545" gradientTransform="translate(155.91995,3.7227902)" gradientUnits="userSpaceOnUse" xlink:href="#linearGradient5074"/><linearGradient id="linearGradient2232" x1="441.503" x2="553.64" y1="596.546" y2="786.834" gradientTransform="translate(155.91995,3.7227902)" gradientUnits="userSpaceOnUse" xlink:href="#linearGradient5809"/><radialGradient id="radialGradient11020" cx="822.358" cy="334.105" r="37.657" fx="822.358" fy="334.105" gradientTransform="matrix(1.389618,6.572876e-8,-1.395947e-8,0.295127,-1147.0601,218.83232)" gradientUnits="userSpaceOnUse" xlink:href="#linearGradient10990"/><radialGradient id="radialGradient11018" cx="834.063" cy="379.374" r="48.538" fx="834.063" fy="379.374" gradientTransform="matrix(1.604552,0.137396,-0.04558732,0.532382,-1332.9848,57.130614)" gradientUnits="userSpaceOnUse" xlink:href="#linearGradient10990"/><radialGradient id="radialGradient11016" cx="834.165" cy="416.627" r="51.49" fx="834.165" fy="416.627" gradientTransform="matrix(1.536957,0.35811,-0.115486,0.495648,-1220.8078,-81.019121)" gradientUnits="userSpaceOnUse" xlink:href="#linearGradient10990"/><radialGradient id="radialGradient11014" cx="559.931" cy="653.197" r="22.917" fx="559.931" fy="653.197" gradientTransform="matrix(-0.523809,2.977912,-0.573765,-0.100924,597.43787,-1122.4516)" gradientUnits="userSpaceOnUse" xlink:href="#linearGradient10990"/><radialGradient id="radialGradient11012" cx="596.68" cy="635.968" r="21.038" fx="596.68" fy="635.968" gradientTransform="matrix(-0.492499,4.368806,-0.629878,-0.07100652,732.99123,-2042.7743)" gradientUnits="userSpaceOnUse" xlink:href="#linearGradient10990"/><radialGradient id="radialGradient11010" cx="637.071" cy="620.452" r="20.071" fx="637.071" fy="620.452" gradientTransform="matrix(1.261524e-6,4.784578,-0.528762,1.394159e-7,258.39389,-2486.0713)" gradientUnits="userSpaceOnUse" xlink:href="#linearGradient10990"/><radialGradient id="radialGradient11008" cx="665.837" cy="613.807" r="23.94" fx="665.837" fy="613.807" gradientTransform="matrix(0.334297,4.019557,-0.995094,0.08275962,391.82207,-2240.9819)" gradientUnits="userSpaceOnUse" xlink:href="#linearGradient10990"/><radialGradient id="radialGradient11006" cx="696.785" cy="592.33" r="27.265" fx="696.785" fy="592.33" gradientTransform="matrix(0.948955,4.089824,-0.993629,0.230546,-207.73447,-2450.4193)" gradientUnits="userSpaceOnUse" xlink:href="#linearGradient10990"/><radialGradient id="radialGradient11004" cx="734.743" cy="565.76" r="39.235" fx="734.743" fy="565.76" gradientTransform="matrix(0.747853,2.224634,-0.425239,0.142953,-427.60907,-1188.9396)" gradientUnits="userSpaceOnUse" xlink:href="#linearGradient10990"/><radialGradient id="radialGradient11002" cx="793.182" cy="558.899" r="55.195" fx="793.182" fy="558.899" gradientTransform="matrix(1.006265,1.510239,-0.401621,0.267598,-663.16697,-833.15883)" gradientUnits="userSpaceOnUse" xlink:href="#linearGradient10990"/><radialGradient id="radialGradient11000" cx="799.92" cy="520.17" r="57.855" fx="799.92" fy="520.17" gradientTransform="matrix(1.238186,1.07492,-0.532416,0.613282,-668.29405,-630.01478)" gradientUnits="userSpaceOnUse" xlink:href="#linearGradient10990"/><radialGradient id="radialGradient10262" cx="825.402" cy="457.292" r="53.865" fx="825.402" fy="457.292" gradientTransform="matrix(1.442415,0.58951,-0.216275,0.529183,-1132.7474,-269.06738)" gradientUnits="userSpaceOnUse" xlink:href="#linearGradient10990"/><radialGradient id="radialGradient5823" cx="425.422" cy="432.993" r="165.44" fx="425.422" fy="432.993" gradientTransform="matrix(0.546319,0.218253,-0.436865,1.093538,105.62767,-147.06742)" gradientUnits="userSpaceOnUse" xlink:href="#linearGradient5817"/><linearGradient id="linearGradient5815" x1="441.503" x2="553.64" y1="596.546" y2="786.834" gradientTransform="translate(155.91995,3.7227902)" gradientUnits="userSpaceOnUse" xlink:href="#linearGradient5809"/><linearGradient id="linearGradient5080" x1="331.574" x2="225.658" y1="354.458" y2="133.545" gradientTransform="translate(155.91995,3.7227902)" gradientUnits="userSpaceOnUse" xlink:href="#linearGradient5074"/><linearGradient id="linearGradient5072" x1="225.43" x2="518.044" y1="682.326" y2="294.857" gradientTransform="translate(-478.87675,4.232021)" gradientUnits="userSpaceOnUse" xlink:href="#linearGradient5066"/><linearGradient id="linearGradient5002" x1="544.291" x2="253.71" y1="213.748" y2="653.042" gradientTransform="translate(-453.48462,5.6426947)" gradientUnits="userSpaceOnUse" xlink:href="#linearGradient4996"/><linearGradient id="linearGradient4996"><stop id="stop4998" offset="0" stop-color="#fff" stop-opacity="1"/><stop id="stop5000" offset="1" stop-color="#fff" stop-opacity="0"/></linearGradient><linearGradient id="linearGradient5006"><stop id="stop5008" offset="0" stop-color="#dfefff" stop-opacity=".502"/><stop id="stop10260" offset=".7" stop-color="#8ec6fe" stop-opacity=".502"/><stop id="stop5016" offset=".8" stop-color="#3e9dfe" stop-opacity=".502"/><stop id="stop5010" offset="1" stop-color="#007dfd" stop-opacity=".502"/></linearGradient><linearGradient id="linearGradient5066"><stop id="stop5068" offset="0" stop-color="#fff" stop-opacity=".629"/><stop id="stop5070" offset="1" stop-color="#fff" stop-opacity="0"/></linearGradient><linearGradient id="linearGradient5074"><stop id="stop5076" offset="0" stop-color="#2b2b9c" stop-opacity="1"/><stop id="stop5078" offset="1" stop-color="#5c5cb3" stop-opacity="1"/></linearGradient><linearGradient id="linearGradient5809"><stop id="stop5811" offset="0" stop-color="#2727e8" stop-opacity="1"/><stop id="stop5813" offset="1" stop-color="#5f5fee" stop-opacity="1"/></linearGradient><linearGradient id="linearGradient5817"><stop id="stop5819" offset="0" stop-color="#69b4ff" stop-opacity="1"/><stop id="stop5821" offset="1" stop-color="#b0d8ff" stop-opacity="1"/></linearGradient><linearGradient id="linearGradient10990"><stop id="stop10992" offset="0" stop-color="#007ffe" stop-opacity=".627"/><stop id="stop10996" offset=".804" stop-color="#3d9eff" stop-opacity=".627"/><stop id="stop10998" offset="1" stop-color="#a5d2ff" stop-opacity=".627"/></linearGradient><linearGradient id="linearGradient4697"><stop id="stop4699" offset="0" stop-color="#000" stop-opacity=".498"/><stop id="stop4707" offset=".9" stop-color="#000" stop-opacity=".498"/><stop id="stop4701" offset="1" stop-color="#000" stop-opacity="0"/></linearGradient><linearGradient id="linearGradient5598"><stop id="stop5600" offset="0" stop-color="#000" stop-opacity=".498"/><stop id="stop5606" offset=".953" stop-color="#000" stop-opacity=".498"/><stop id="stop5602" offset="1" stop-color="#000" stop-opacity="0"/></linearGradient><filter id="filter3495" color-interpolation-filters="sRGB"><feGaussianBlur id="feGaussianBlur3497" stdDeviation=".655"/></filter><linearGradient id="linearGradient2361" x1="67.794" x2="73.216" y1="15.536" y2="18.696" gradientUnits="userSpaceOnUse" xlink:href="#linearGradient3266"/><linearGradient id="linearGradient2363" x1="231.715" x2="222.357" y1="145.446" y2="144.912" gradientUnits="userSpaceOnUse" xlink:href="#linearGradient3258"/><linearGradient id="linearGradient2324" x1="231.715" x2="222.357" y1="145.446" y2="144.912" gradientTransform="matrix(3.3771096,0,0,3.3771096,-223.77696,-215.3576)" gradientUnits="userSpaceOnUse" xlink:href="#linearGradient3258"/><linearGradient id="linearGradient2329" x1="67.794" x2="73.216" y1="15.536" y2="18.696" gradientUnits="userSpaceOnUse" xlink:href="#linearGradient3266"/><linearGradient id="linearGradient2904" x1="441.503" x2="553.64" y1="596.546" y2="786.834" gradientTransform="matrix(0.1730824,0,0,0.1718448,373.11251,357.18549)" gradientUnits="userSpaceOnUse" xlink:href="#linearGradient5809"/><linearGradient id="linearGradient2902" x1="331.574" x2="225.658" y1="354.458" y2="133.545" gradientTransform="matrix(0.1730824,0,0,0.1718448,373.11251,357.18549)" gradientUnits="userSpaceOnUse" xlink:href="#linearGradient5074"/><linearGradient id="linearGradient2900" x1="331.574" x2="225.658" y1="354.458" y2="133.545" gradientTransform="translate(155.91995,3.7227902)" gradientUnits="userSpaceOnUse" xlink:href="#linearGradient5074"/><linearGradient id="linearGradient2898" x1="441.503" x2="553.64" y1="596.546" y2="786.834" gradientTransform="translate(155.91995,3.7227902)" gradientUnits="userSpaceOnUse" xlink:href="#linearGradient5809"/><radialGradient id="radialGradient2896" cx="822.358" cy="334.105" r="37.657" fx="822.358" fy="334.105" gradientTransform="matrix(1.389618,6.572876e-8,-1.395947e-8,0.295127,-1147.0601,218.83232)" gradientUnits="userSpaceOnUse" xlink:href="#linearGradient10990"/><radialGradient id="radialGradient2894" cx="834.063" cy="379.374" r="48.538" fx="834.063" fy="379.374" gradientTransform="matrix(1.604552,0.137396,-0.04558732,0.532382,-1332.9848,57.130614)" gradientUnits="userSpaceOnUse" xlink:href="#linearGradient10990"/><radialGradient id="radialGradient2892" cx="834.165" cy="416.627" r="51.49" fx="834.165" fy="416.627" gradientTransform="matrix(1.536957,0.35811,-0.115486,0.495648,-1220.8078,-81.019121)" gradientUnits="userSpaceOnUse" xlink:href="#linearGradient10990"/><radialGradient id="radialGradient2890" cx="559.931" cy="653.197" r="22.917" fx="559.931" fy="653.197" gradientTransform="matrix(-0.523809,2.977912,-0.573765,-0.100924,597.43787,-1122.4516)" gradientUnits="userSpaceOnUse" xlink:href="#linearGradient10990"/><radialGradient id="radialGradient2888" cx="596.68" cy="635.968" r="21.038" fx="596.68" fy="635.968" gradientTransform="matrix(-0.492499,4.368806,-0.629878,-0.07100652,732.99123,-2042.7743)" gradientUnits="userSpaceOnUse" xlink:href="#linearGradient10990"/><radialGradient id="radialGradient2886" cx="637.071" cy="620.452" r="20.071" fx="637.071" fy="620.452" gradientTransform="matrix(1.261524e-6,4.784578,-0.528762,1.394159e-7,258.39389,-2486.0713)" gradientUnits="userSpaceOnUse" xlink:href="#linearGradient10990"/><radialGradient id="radialGradient2884" cx="665.837" cy="613.807" r="23.94" fx="665.837" fy="613.807" gradientTransform="matrix(0.334297,4.019557,-0.995094,0.08275962,391.82207,-2240.9819)" gradientUnits="userSpaceOnUse" xlink:href="#linearGradient10990"/><radialGradient id="radialGradient2882" cx="696.785" cy="592.33" r="27.265" fx="696.785" fy="592.33" gradientTransform="matrix(0.948955,4.089824,-0.993629,0.230546,-207.73447,-2450.4193)" gradientUnits="userSpaceOnUse" xlink:href="#linearGradient10990"/><radialGradient id="radialGradient2880" cx="734.743" cy="565.76" r="39.235" fx="734.743" fy="565.76" gradientTransform="matrix(0.747853,2.224634,-0.425239,0.142953,-427.60907,-1188.9396)" gradientUnits="userSpaceOnUse" xlink:href="#linearGradient10990"/><radialGradient id="radialGradient2878" cx="793.182" cy="558.899" r="55.195" fx="793.182" fy="558.899" gradientTransform="matrix(1.006265,1.510239,-0.401621,0.267598,-663.16697,-833.15883)" gradientUnits="userSpaceOnUse" xlink:href="#linearGradient10990"/><radialGradient id="radialGradient2876" cx="799.92" cy="520.17" r="57.855" fx="799.92" fy="520.17" gradientTransform="matrix(1.238186,1.07492,-0.532416,0.613282,-668.29405,-630.01478)" gradientUnits="userSpaceOnUse" xlink:href="#linearGradient10990"/><radialGradient id="radialGradient2874" cx="825.402" cy="457.292" r="53.865" fx="825.402" fy="457.292" gradientTransform="matrix(1.442415,0.58951,-0.216275,0.529183,-1132.7474,-269.06738)" gradientUnits="userSpaceOnUse" xlink:href="#linearGradient10990"/><radialGradient id="radialGradient2872" cx="425.422" cy="432.993" r="165.44" fx="425.422" fy="432.993" gradientTransform="matrix(0.546319,0.218253,-0.436865,1.093538,105.62767,-147.06742)" gradientUnits="userSpaceOnUse" xlink:href="#linearGradient5817"/><linearGradient id="linearGradient2870" x1="441.503" x2="553.64" y1="596.546" y2="786.834" gradientTransform="translate(155.91995,3.7227902)" gradientUnits="userSpaceOnUse" xlink:href="#linearGradient5809"/><linearGradient id="linearGradient2868" x1="331.574" x2="225.658" y1="354.458" y2="133.545" gradientTransform="translate(155.91995,3.7227902)" gradientUnits="userSpaceOnUse" xlink:href="#linearGradient5074"/><linearGradient id="linearGradient2866" x1="225.43" x2="518.044" y1="682.326" y2="294.857" gradientTransform="translate(-478.87675,4.232021)" gradientUnits="userSpaceOnUse" xlink:href="#linearGradient5066"/><linearGradient id="linearGradient2864" x1="544.291" x2="253.71" y1="213.748" y2="653.042" gradientTransform="translate(-453.48462,5.6426947)" gradientUnits="userSpaceOnUse" xlink:href="#linearGradient4996"/><linearGradient id="linearGradient2858"><stop id="stop2860" offset="0" stop-color="#fff" stop-opacity="1"/><stop id="stop2862" offset="1" stop-color="#fff" stop-opacity="0"/></linearGradient><linearGradient id="linearGradient2848"><stop id="stop2850" offset="0" stop-color="#dfefff" stop-opacity=".502"/><stop id="stop2852" offset=".7" stop-color="#8ec6fe" stop-opacity=".502"/><stop id="stop2854" offset=".8" stop-color="#3e9dfe" stop-opacity=".502"/><stop id="stop2856" offset="1" stop-color="#007dfd" stop-opacity=".502"/></linearGradient><linearGradient id="linearGradient2842"><stop id="stop2844" offset="0" stop-color="#fff" stop-opacity=".629"/><stop id="stop2846" offset="1" stop-color="#fff" stop-opacity="0"/></linearGradient><linearGradient id="linearGradient2836"><stop id="stop2838" offset="0" stop-color="#2b2b9c" stop-opacity="1"/><stop id="stop2840" offset="1" stop-color="#5c5cb3" stop-opacity="1"/></linearGradient><linearGradient id="linearGradient2830"><stop id="stop2832" offset="0" stop-color="#2727e8" stop-opacity="1"/><stop id="stop2834" offset="1" stop-color="#5f5fee" stop-opacity="1"/></linearGradient><linearGradient id="linearGradient2824"><stop id="stop2826" offset="0" stop-color="#69b4ff" stop-opacity="1"/><stop id="stop2828" offset="1" stop-color="#b0d8ff" stop-opacity="1"/></linearGradient><linearGradient id="linearGradient2816"><stop id="stop2818" offset="0" stop-color="#007ffe" stop-opacity=".627"/><stop id="stop2820" offset=".804" stop-color="#3d9eff" stop-opacity=".627"/><stop id="stop2822" offset="1" stop-color="#a5d2ff" stop-opacity=".627"/></linearGradient><linearGradient id="linearGradient2808"><stop id="stop2810" offset="0" stop-color="#000" stop-opacity=".498"/><stop id="stop2812" offset=".9" stop-color="#000" stop-opacity=".498"/><stop id="stop2814" offset="1" stop-color="#000" stop-opacity="0"/></linearGradient><linearGradient id="linearGradient2800"><stop id="stop2802" offset="0" stop-color="#000" stop-opacity=".498"/><stop id="stop2804" offset=".953" stop-color="#000" stop-opacity=".498"/><stop id="stop2806" offset="1" stop-color="#000" stop-opacity="0"/></linearGradient><linearGradient id="linearGradient2350" x1="231.715" x2="222.357" y1="145.446" y2="144.912" gradientTransform="matrix(3.3771096,0,0,3.3771096,-226.52402,-199.72976)" gradientUnits="userSpaceOnUse" xlink:href="#linearGradient3258"/><linearGradient id="linearGradient2355" x1="67.794" x2="73.216" y1="15.536" y2="18.696" gradientUnits="userSpaceOnUse" xlink:href="#linearGradient3266"/><linearGradient id="linearGradient2386" x1="231.715" x2="222.357" y1="145.446" y2="144.912" gradientTransform="matrix(3.3771096,0,0,3.3771096,-225.9505,-202.08073)" gradientUnits="userSpaceOnUse" xlink:href="#linearGradient3258"/><linearGradient id="linearGradient2403" x1="331.574" x2="225.658" y1="354.458" y2="133.545" gradientTransform="matrix(0.1730824,0,0,0.1718448,152.57359,197.13637)" gradientUnits="userSpaceOnUse" xlink:href="#linearGradient5074"/><linearGradient id="linearGradient2406" x1="63.667" x2="77.5" y1="18.938" y2="18.938" gradientTransform="translate(-220.53892,-160.04912)" gradientUnits="userSpaceOnUse" xlink:href="#linearGradient3278"/><linearGradient id="linearGradient2409" x1="67.794" x2="73.216" y1="15.536" y2="18.696" gradientUnits="userSpaceOnUse" xlink:href="#linearGradient3266"/><linearGradient id="linearGradient2343" x1="331.574" x2="225.658" y1="354.458" y2="133.545" gradientTransform="matrix(0.1730824,0,0,0.1718448,152.57359,197.13637)" gradientUnits="userSpaceOnUse" xlink:href="#linearGradient5074"/><linearGradient id="linearGradient2346" x1="63.667" x2="77.5" y1="18.938" y2="18.938" gradientTransform="translate(-220.53892,-160.04912)" gradientUnits="userSpaceOnUse" xlink:href="#linearGradient3278"/></defs><g id="g2381" transform="translate(-153.25257,-213.69404)"><path id="path6573" fill="#9195e1" fill-opacity="1" fill-rule="evenodd" stroke="none" d="m 760.76114,433.07086 c 0,218.44964 -177.08842,395.53806 -395.53806,395.53806 -218.44963,0 -395.538052,-177.08842 -395.538052,-395.53806 0,-218.44963 177.088422,-395.538054 395.538052,-395.538054 218.44964,0 395.53806,177.088424 395.53806,395.538054 z" transform="matrix(0.1596245,0,0,0.1596247,158.95416,208.5661)"/><path id="path2064" fill="url(#linearGradient2346)" fill-opacity="1" fill-rule="evenodd" stroke="none" d="m 163.31785,310.28568 c -6.32473,-12.34953 -8.05387,-20.49647 -9.52788,-32.28418 3.81257,-0.10939 4.90008,-2.24285 31.45589,3.47223 7.16773,3.65338 19.48816,5.76222 21.97314,5.67619 1.35759,0.0791 13.05993,-0.67788 15.04445,-1.97661 1.98739,-0.88215 15.99863,-3.10467 21.11682,-3.66075 3.18189,-0.47001 4.50887,-1.12735 7.73783,-1.15937 11.35612,-5.35068 24.3651,-3.5214 29.52452,-2.34558 -0.1077,4.34882 -0.64329,10.45278 -1.44535,13.25753 -0.83486,3.95125 -1.25505,6.04479 -3.20764,9.5936 -0.86304,4.07813 -2.79707,6.71702 -5.82995,11.62656 -3.16637,4.95692 -8.85713,10.12649 -15.35852,15.5514 -4.35459,5.8898 -19.72031,9.02775 -22.94775,10.88715 -8.55892,2.31056 -17.1425,3.16792 -32.16414,-0.86687 -16.64504,-3.63918 -29.62612,-18.61585 -36.37142,-27.7713 z"/><path id="path2056" fill="url(#linearGradient2343)" fill-opacity="1" fill-rule="evenodd" stroke="none" d="m 155.25682,263.1413 c 0.6654,-2.66163 2.25909,-8.13069 3.89624,-10.31356 2.73624,-3.64834 6.99051,-12.21676 10.08436,-16.5017 4.52016,-6.26037 18.25337,-14.60235 24.29417,-17.41846 9.3217,-4.34562 32.45573,-6.36135 45.37965,-0.45838 5.54058,2.53065 16.26536,8.07359 20.62713,12.60546 4.06502,4.22358 10.5201,11.73492 13.7514,18.33522 1.74906,3.57267 7.16364,17.7727 6.41732,17.87684 -4.71335,0.65767 -9.56876,2.38248 -14.43898,3.89623 -3.42766,1.06538 -9.31841,3.89624 -10.08436,3.89624 -3.43786,0 -15.4907,-0.83882 -19.0228,-0.68757 -3.52211,0.15082 -8.86547,0.0959 -10.54273,0.45837 -5.14771,1.11256 -13.46546,-0.10221 -18.33522,-2.97947 -9.24476,1.9224 -12.77368,3.34755 -27.27363,-1.37513 -12.22239,-3.98088 -23.04873,-1.05625 -24.52336,-0.68758 -1.94899,0.48725 -0.57979,-5.24412 -0.22919,-6.64651 z"/><path id="path2058" fill="#b2b4ff" fill-opacity=".502" fill-rule="evenodd" stroke="none" d="m 154.11364,269.98938 c -0.46386,0.30755 -0.29852,6.66155 0.0735,9.77357 0.69771,1.34006 -0.75673,3.15055 0.0612,4.42669 1.06229,1.26575 17.96392,4.17448 30.99751,-2.71591 7.16773,3.65338 19.48816,5.76222 21.97314,5.67619 1.35759,0.0791 31.04308,-5.08128 36.16127,-5.63736 3.18189,-0.47001 6.34239,-1.12735 9.57135,-1.15937 2.18853,-0.0793 11.59494,2.01483 14.10855,3.03809 7.97815,3.2478 10.94211,1.92182 12.43548,2.40625 0.3507,-1.15174 0.96205,-3.0669 0.61838,-5.30434 -0.14728,-2.69526 0.80767,-8.85257 -0.22817,-10.57514 -0.86303,-0.73485 0.23011,-2.34712 -0.76943,-2.57144 -3.35671,0.5678 -9.25646,2.30332 -14.14181,3.90936 -4.29978,1.42531 -6.14948,2.85959 -9.02473,2.95456 -2.70396,0.83022 -9.61856,0.40802 -12.73297,0.33881 -6.61848,-1.45305 -13.54767,-4.88569 -20.73662,-6.10729 -3.89623,-0.29835 -11.99097,1.55012 -15.2184,3.40951 -5.12106,-2.50243 -16.63917,-4.01807 -20.88889,-4.38581 -15.49707,-1.34855 -27.70891,1.32477 -32.25937,2.52363 z"/><path id="path2052" fill="none" stroke="#26269a" stroke-dasharray="none" stroke-dashoffset="0" stroke-linecap="butt" stroke-linejoin="round" stroke-miterlimit="4" stroke-opacity="1" stroke-width="10.805" d="m 760.76114,433.07086 c 0,218.44964 -177.08842,395.53806 -395.53806,395.53806 -218.44963,0 -395.538052,-177.08842 -395.538052,-395.53806 0,-218.44963 177.088422,-395.538054 395.538052,-395.538054 218.44964,0 395.53806,177.088424 395.53806,395.538054 z" transform="matrix(0.1596245,0,0,0.1596247,158.95416,208.5661)"/><g id="g2373" transform="translate(3.3772247,7.0388147)"><path id="path2458" fill="#000" fill-opacity="1" fill-rule="evenodd" stroke="#000" stroke-dasharray="none" stroke-linecap="butt" stroke-linejoin="miter" stroke-miterlimit="4" stroke-opacity="1" stroke-width="1.55" d="m 211.32356,128.37745 c 1.33355,-0.68632 17.24041,1.35319 17.85159,3.07786 0.87206,1.13542 1.20617,10.94739 0.41038,11.69588 -1.00211,1.03148 -22.13027,-0.99964 -23.18655,-2.87267 -0.78052,-1.12703 2.65776,-10.31084 4.92458,-11.90107 z" filter="url(#filter3495)" transform="matrix(3.3771096,0,0,3.3771096,-522.87836,-188.0747)"/><path id="path2460" fill="#000" fill-opacity="1" fill-rule="evenodd" stroke="#000" stroke-dasharray="none" stroke-linecap="butt" stroke-linejoin="miter" stroke-miterlimit="4" stroke-opacity="1" stroke-width="1.55" d="m 214.85909,134.27001 c 1.33355,-0.68632 3.45183,-1.12168 4.06302,0.60299 3.22908,0.1926 11.45921,7.5297 10.66342,8.27819 -1.00211,1.03148 -22.13027,-0.99964 -23.18655,-2.87267 -0.78052,-1.12703 4.89693,-5.95035 8.46011,-6.00851 z" filter="url(#filter3495)" transform="matrix(3.3771096,0,0,3.3771096,-522.87836,-188.0747)"/><path id="path2466" fill="#000" fill-opacity="1" fill-rule="evenodd" stroke="#000" stroke-dasharray="none" stroke-linecap="butt" stroke-linejoin="miter" stroke-miterlimit="4" stroke-opacity="1" stroke-width="1.55" d="m 211.32356,128.37745 c 1.33355,-0.68632 17.24041,1.35319 17.85159,3.07786 -0.4243,2.31393 -3.74358,4.22987 -5.95358,4.86051 -3.12344,0.44223 -7.98814,-0.52823 -9.28012,-1.69416 -1.25193,-0.89132 -3.9419,-4.06472 -2.61789,-6.24421 z" filter="url(#filter3495)" transform="matrix(3.3771096,0,0,3.3771096,-522.87836,-188.0747)"/><path id="path2231" fill="#eee5dd" fill-opacity="1" fill-rule="evenodd" stroke="#94806f" stroke-dasharray="none" stroke-linecap="butt" stroke-linejoin="miter" stroke-miterlimit="4" stroke-opacity="1" stroke-width="5.235" d="m 190.78446,245.47002 c 4.50355,-2.31778 58.22276,4.56987 60.28678,10.39427 2.94504,3.83444 4.07337,36.97054 1.3859,39.49827 -3.38424,3.48342 -74.73635,-3.3759 -78.30352,-9.70132 -2.6359,-3.80611 8.97554,-34.82084 16.63084,-40.19122 z"/><path id="path2233" fill="#f3ebe4" fill-opacity="1" fill-rule="evenodd" stroke="#937f6d" stroke-dasharray="none" stroke-linecap="butt" stroke-linejoin="miter" stroke-miterlimit="4" stroke-opacity=".957" stroke-width="5.235" d="m 202.72434,265.36984 c 4.50354,-2.31778 11.6572,-3.78804 13.72126,2.03636 10.90496,0.65043 38.69901,25.42863 36.01154,27.95636 -3.38424,3.48342 -74.73635,-3.3759 -78.30352,-9.70132 -2.6359,-3.80611 16.53747,-20.09499 28.57072,-20.2914 z"/><path id="path2235" fill="#f7f0e9" fill-opacity="1" fill-rule="evenodd" stroke="#9e8b7a" stroke-dasharray="none" stroke-linecap="butt" stroke-linejoin="miter" stroke-miterlimit="4" stroke-opacity="1" stroke-width="5.235" d="m 190.78446,245.47002 c 4.50355,-2.31778 58.22276,4.56987 60.28678,10.39427 -1.43291,7.81439 -12.64248,14.28473 -20.10589,16.41447 -10.5482,1.49346 -26.97683,-1.78389 -31.33999,-5.72136 -4.2279,-3.01008 -13.31222,-13.727 -8.8409,-21.08738 z"/></g></g></svg>